<svg width="25" height="25" viewBox="0 0 25 25" fill="none" xmlns="http://www.w3.org/2000/svg">
<path d="M16.4751 8.65653L7.14231 17.9798C7.00381 18.1181 6.82981 18.1857 6.62031 18.1825C6.41065 18.1794 6.23656 18.1085 6.09806 17.97C5.95973 17.8315 5.89056 17.6591 5.89056 17.4528C5.89056 17.2465 5.95973 17.074 6.09806 16.9355L15.4213 7.60278H7.22506C7.01256 7.60278 6.8344 7.53087 6.69056 7.38703C6.5469 7.2432 6.47506 7.06503 6.47506 6.85253C6.47506 6.63987 6.5469 6.46178 6.69056 6.31828C6.8344 6.17462 7.01256 6.10278 7.22506 6.10278H17.0711C17.3272 6.10278 17.5419 6.18937 17.7151 6.36253C17.8884 6.53587 17.9751 6.75053 17.9751 7.00653V16.8528C17.9751 17.0653 17.9031 17.2434 17.7593 17.387C17.6155 17.5309 17.4373 17.6028 17.2248 17.6028C17.0121 17.6028 16.834 17.5309 16.6903 17.387C16.5468 17.2434 16.4751 17.0653 16.4751 16.8528V8.65653Z" fill="#0056B3"/>
</svg>
