<svg width="55" height="54" viewBox="0 0 55 54" fill="none" xmlns="http://www.w3.org/2000/svg">
<path fill-rule="evenodd" clip-rule="evenodd" d="M27.3819 8.38452C23.4737 8.3857 19.6655 9.59756 16.5001 11.8474C13.3347 14.0973 10.9736 17.2703 9.75325 20.9144C8.53289 24.5585 8.51553 28.4876 9.70367 32.1419C10.8918 35.7962 13.2248 38.9892 16.3702 41.2659C19.5156 43.5426 23.3129 44.7869 27.221 44.8213C31.1291 44.8557 34.9485 43.6786 38.1351 41.4577C41.3216 39.2368 43.7126 36.0854 44.9674 32.4526C46.2222 28.8198 46.2767 24.891 45.1231 21.226C45.0027 20.8096 45.0531 20.3636 45.2636 19.9833C45.474 19.6029 45.8278 19.3186 46.2491 19.191C46.6705 19.0634 47.126 19.1028 47.5181 19.3007C47.9103 19.4986 48.208 19.8393 48.3474 20.2499C48.9796 22.2595 49.3194 24.3949 49.3194 26.6033C49.3194 38.4951 39.4981 48.1345 27.3819 48.1345C15.2656 48.1345 5.4444 38.4951 5.4444 26.6033C5.4444 14.7114 15.2656 5.07202 27.3819 5.07202C28.9344 5.07202 30.4554 5.23102 31.9224 5.53577C32.3494 5.63684 32.7195 5.89735 32.9539 6.26194C33.1883 6.62654 33.2687 7.06649 33.1778 7.4883C33.087 7.91011 32.8322 8.28054 32.4675 8.52088C32.1029 8.76122 31.6571 8.85253 31.2249 8.7754C29.9611 8.51484 28.6732 8.38385 27.3819 8.38452ZM49.5286 6.71061C49.8447 7.02115 50.0222 7.44211 50.0222 7.88102C50.0222 8.31993 49.8447 8.74089 49.5286 9.05144L40.5286 17.8848C40.2122 18.1949 39.7833 18.3691 39.3361 18.3691C38.889 18.3691 38.4601 18.1949 38.1437 17.8848L33.6436 13.4681C33.3456 13.1541 33.1833 12.7389 33.191 12.3098C33.1987 11.8807 33.3758 11.4713 33.685 11.1679C33.9942 10.8644 34.4113 10.6906 34.8485 10.683C35.2856 10.6754 35.7088 10.8347 36.0286 11.1273L39.3361 14.3735L47.1437 6.71061C47.4601 6.40044 47.889 6.22623 48.3361 6.22623C48.7833 6.22623 49.2122 6.40044 49.5286 6.71061ZM27.3819 11.697C27.8295 11.697 28.2587 11.8715 28.5751 12.1821C28.8916 12.4927 29.0694 12.914 29.0694 13.3533V16.1623H29.1301C30.7927 16.1623 32.3871 16.8105 33.5626 17.9643C34.7382 19.1181 35.3986 20.683 35.3986 22.3147C35.3986 22.754 35.2209 23.1752 34.9044 23.4858C34.5879 23.7964 34.1587 23.9709 33.7111 23.9709C33.2636 23.9709 32.8344 23.7964 32.5179 23.4858C32.2014 23.1752 32.0236 22.754 32.0236 22.3147C32.0236 20.7468 30.7276 19.4748 29.1301 19.4748H29.0694V24.9757H29.2494C30.88 24.9757 32.4438 25.6115 33.5968 26.7431C34.7498 27.8748 35.3975 29.4096 35.3975 31.01C35.3975 32.6104 34.7498 34.1452 33.5968 35.2769C32.4438 36.4085 30.88 37.0443 29.2494 37.0443H29.0694V39.8533C29.0694 40.2925 28.8916 40.7138 28.5751 41.0244C28.2587 41.335 27.8295 41.5095 27.3819 41.5095C26.9343 41.5095 26.5051 41.335 26.1887 41.0244C25.8722 40.7138 25.6944 40.2925 25.6944 39.8533V37.0443H25.5144C24.707 37.0443 23.9075 36.8881 23.1615 36.5848C22.4156 36.2815 21.7378 35.8369 21.167 35.2764C20.5962 34.716 20.1434 34.0506 19.8347 33.3184C19.5259 32.5861 19.3671 31.8014 19.3674 31.0089C19.3674 30.5696 19.5452 30.1484 19.8617 29.8378C20.1781 29.5271 20.6073 29.3526 21.0549 29.3526C21.5024 29.3526 21.9317 29.5271 22.2481 29.8378C22.5646 30.1484 22.7424 30.5696 22.7424 31.0089C22.7424 32.5128 23.9821 33.7318 25.5144 33.7318H25.6944V28.2882H25.5436C23.9345 28.2456 22.4058 27.5882 21.283 26.4561C20.1601 25.3239 19.5319 23.8063 19.5319 22.2264C19.5319 20.6464 20.1601 19.1288 21.283 17.9967C22.4058 16.8645 23.9345 16.2071 25.5436 16.1645H25.6944V13.3533C25.6944 12.914 25.8722 12.4927 26.1887 12.1821C26.5051 11.8715 26.9343 11.697 27.3819 11.697ZM25.6944 19.4748H25.5436C24.8142 19.4951 24.1215 19.7937 23.6128 20.3073C23.1041 20.8209 22.8196 21.509 22.8196 22.2253C22.8196 22.9415 23.1041 23.6296 23.6128 24.1432C24.1215 24.6568 24.8142 24.9554 25.5436 24.9757H25.6944V19.4748ZM29.0694 28.2882V33.7318H29.2494C29.9849 33.7318 30.6902 33.445 31.2103 32.9346C31.7304 32.4242 32.0225 31.7319 32.0225 31.01C32.0225 30.2881 31.7304 29.5958 31.2103 29.0854C30.6902 28.575 29.9849 28.2882 29.2494 28.2882H29.0694Z" fill="white"/>
</svg>
