<svg className="h-full w-auto" viewBox="0 0 164 59" fill="none" xmlns="http://www.w3.org/2000/svg">
<g clip-path="url(#clip0_1_335)">
<path d="M5.15999 11.3901L21.05 2.21008C24.24 0.370078 28.17 0.370078 31.36 2.21008L47.26 11.3901C50.45 13.2301 52.42 16.6401 52.42 20.3201V38.6801C52.42 42.3601 50.45 45.7701 47.26 47.6101L31.36 56.7901C28.17 58.6301 24.24 58.6301 21.05 56.7901L5.14999 47.6101C1.95999 45.7701 -0.0100098 42.3601 -0.0100098 38.6801V20.3201C-0.0100098 16.6401 1.95999 13.2301 5.14999 11.3901H5.15999Z" fill="#0056B3"/>
<path d="M38.4594 23.0997C38.5724 21.7679 37.58 20.5963 36.2427 20.4829C34.9055 20.3694 33.7298 21.357 33.6168 22.6888C33.5038 24.0205 34.4963 25.1921 35.8335 25.3055C37.1708 25.419 38.3464 24.4314 38.4594 23.0997Z" fill="white"/>
<path d="M29.49 13.49C23.17 12.04 16.87 15.99 15.42 22.31C13.97 28.63 17.91 34.93 24.23 36.38C24.28 36.39 24.33 36.41 24.38 36.42C24.48 36.44 24.58 36.46 24.69 36.47C24.69 36.47 24.7 36.47 24.71 36.47C26.06 36.62 27.34 35.74 27.65 34.39C27.99 32.93 27.07 31.48 25.61 31.15C25.57 31.15 25.53 31.14 25.49 31.13C25.49 31.13 25.49 31.13 25.5 31.13C25.49 31.13 25.47 31.13 25.46 31.13C22.05 30.35 19.92 26.95 20.7 23.54C21.48 20.13 24.88 18 28.29 18.78C30.25 19.23 31.79 20.54 32.59 22.23C32.54 21.9 32.55 21.56 32.63 21.22C32.97 19.73 34.46 18.8 35.95 19.14C36.69 19.31 37.29 19.76 37.67 20.35C36.25 17.02 33.3 14.39 29.5 13.51L29.49 13.49Z" fill="white"/>
<path d="M26.9485 27.5341C28.267 27.3154 29.1578 26.0648 28.9381 24.7408C28.7185 23.4169 27.4716 22.5209 26.1531 22.7397C24.8345 22.9584 23.9438 24.209 24.1634 25.533C24.3831 26.8569 25.63 27.7529 26.9485 27.5341Z" fill="white"/>
<path d="M36.4 30.7001C38.35 36.8801 34.92 43.4801 28.73 45.4301C22.55 47.3801 15.96 43.9501 14 37.7701C13.98 37.7201 13.96 37.6801 13.95 37.6301C13.92 37.5301 13.89 37.4301 13.88 37.3301C13.88 37.3301 13.88 37.3201 13.88 37.3101C13.63 35.9801 14.4 34.6301 15.72 34.2201C17.15 33.7701 18.67 34.5701 19.12 36.0001C19.13 36.0401 19.14 36.0801 19.15 36.1201C19.15 36.1201 19.15 36.1201 19.15 36.1101C19.15 36.1201 19.15 36.1401 19.16 36.1501C20.21 39.4901 23.77 41.3401 27.11 40.2901C30.45 39.2401 32.3 35.6801 31.25 32.3401C30.65 30.4201 29.21 29.0001 27.47 28.3301C27.8 28.3501 28.14 28.3101 28.47 28.2101C29.93 27.7501 30.74 26.1901 30.28 24.7301C30.05 24.0101 29.56 23.4401 28.93 23.1201C32.37 24.2701 35.22 27.0001 36.4 30.7201V30.7001Z" fill="white"/>
<path d="M61.93 36.34C60.69 35.98 59.69 35.51 58.94 34.94L60.26 32.01C60.98 32.54 61.84 32.96 62.83 33.28C63.82 33.6 64.81 33.76 65.81 33.76C66.91 33.76 67.73 33.6 68.26 33.27C68.79 32.94 69.05 32.51 69.05 31.96C69.05 31.56 68.89 31.23 68.58 30.96C68.27 30.69 67.87 30.48 67.38 30.32C66.89 30.16 66.23 29.98 65.4 29.79C64.12 29.49 63.07 29.18 62.26 28.88C61.44 28.58 60.74 28.09 60.16 27.42C59.58 26.75 59.28 25.85 59.28 24.73C59.28 23.75 59.54 22.87 60.07 22.08C60.6 21.29 61.39 20.66 62.46 20.2C63.52 19.74 64.82 19.5 66.36 19.5C67.43 19.5 68.48 19.63 69.5 19.88C70.52 20.14 71.42 20.5 72.19 20.98L70.99 23.93C69.44 23.05 67.89 22.61 66.33 22.61C65.24 22.61 64.44 22.79 63.92 23.14C63.4 23.49 63.14 23.96 63.14 24.53C63.14 25.1 63.44 25.53 64.04 25.81C64.64 26.09 65.56 26.37 66.79 26.64C68.07 26.94 69.12 27.25 69.93 27.55C70.75 27.85 71.45 28.33 72.03 28.99C72.61 29.65 72.91 30.53 72.91 31.65C72.91 32.61 72.64 33.49 72.11 34.28C71.58 35.07 70.77 35.7 69.7 36.16C68.63 36.62 67.32 36.86 65.79 36.86C64.46 36.86 63.18 36.68 61.94 36.32L61.93 36.34Z" fill=""/>
<path d="M87.89 23.6799L82.06 37.3799C81.47 38.8699 80.74 39.9199 79.86 40.5199C78.99 41.1299 77.94 41.4299 76.7 41.4299C76.03 41.4299 75.36 41.3299 74.71 41.1199C74.05 40.9099 73.52 40.6199 73.1 40.2599L74.47 37.5999C74.76 37.8599 75.09 38.0599 75.47 38.1999C75.85 38.3399 76.22 38.4199 76.59 38.4199C77.1 38.4199 77.52 38.2999 77.84 38.0499C78.16 37.7999 78.45 37.3899 78.7 36.8099L78.75 36.6899L73.16 23.6799H77.02L80.64 32.4399L84.29 23.6799H87.89Z" fill=""/>
<path d="M101.15 24.93C102.13 25.89 102.63 27.31 102.63 29.2V36.59H98.89V29.77C98.89 28.75 98.67 27.98 98.22 27.48C97.77 26.98 97.12 26.72 96.28 26.72C95.34 26.72 94.58 27.01 94.02 27.6C93.46 28.19 93.18 29.05 93.18 30.2V36.58H89.44V23.67H93.02V25.18C93.52 24.64 94.13 24.22 94.87 23.92C95.61 23.62 96.41 23.48 97.29 23.48C98.89 23.48 100.18 23.96 101.17 24.92L101.15 24.93Z" fill=""/>
<path d="M109.67 35.76C108.29 35.02 107.2 33.98 106.41 32.66C105.62 31.34 105.22 29.85 105.22 28.18C105.22 26.51 105.62 25.02 106.41 23.7C107.2 22.38 108.29 21.35 109.67 20.6C111.05 19.86 112.61 19.48 114.34 19.48C115.8 19.48 117.11 19.74 118.29 20.25C119.47 20.76 120.45 21.5 121.25 22.46L118.75 24.76C117.61 23.45 116.21 22.79 114.53 22.79C113.49 22.79 112.56 23.02 111.75 23.47C110.93 23.93 110.3 24.56 109.84 25.38C109.38 26.2 109.16 27.12 109.16 28.16C109.16 29.2 109.39 30.13 109.84 30.94C110.3 31.76 110.93 32.39 111.75 32.85C112.57 33.31 113.49 33.53 114.53 33.53C116.21 33.53 117.62 32.87 118.75 31.54L121.25 33.84C120.45 34.82 119.46 35.56 118.27 36.07C117.09 36.58 115.77 36.84 114.31 36.84C112.6 36.84 111.05 36.47 109.67 35.72V35.76Z" fill=""/>
<path d="M135.32 24.93C136.3 25.89 136.8 27.31 136.8 29.2V36.59H133.06V29.77C133.06 28.75 132.84 27.98 132.39 27.48C131.94 26.98 131.29 26.72 130.45 26.72C129.51 26.72 128.75 27.01 128.19 27.6C127.63 28.19 127.35 29.05 127.35 30.2V36.58H123.61V18.77H127.35V25.01C127.85 24.51 128.45 24.13 129.15 23.87C129.85 23.61 130.62 23.47 131.45 23.47C133.05 23.47 134.34 23.95 135.33 24.91L135.32 24.93Z" fill=""/>
<path d="M150 24.92C151.07 25.87 151.61 27.31 151.61 29.23V36.6H148.11V34.99C147.41 36.19 146.09 36.79 144.17 36.79C143.18 36.79 142.32 36.62 141.59 36.29C140.86 35.96 140.31 35.49 139.92 34.9C139.54 34.31 139.34 33.64 139.34 32.88C139.34 31.68 139.79 30.74 140.7 30.05C141.6 29.36 143 29.02 144.89 29.02H147.87C147.87 28.2 147.62 27.58 147.13 27.14C146.63 26.7 145.89 26.48 144.9 26.48C144.21 26.48 143.54 26.59 142.87 26.8C142.21 27.02 141.64 27.31 141.18 27.68L139.84 25.06C140.54 24.56 141.39 24.18 142.37 23.91C143.35 23.64 144.37 23.5 145.41 23.5C147.41 23.5 148.95 23.98 150.02 24.93L150 24.92ZM146.81 33.82C147.31 33.52 147.66 33.09 147.87 32.51V31.19H145.3C143.76 31.19 143 31.69 143 32.7C143 33.18 143.19 33.56 143.56 33.84C143.94 34.12 144.45 34.26 145.11 34.26C145.77 34.26 146.32 34.11 146.81 33.82Z" fill=""/>
<path d="M163.32 35.9701C162.95 36.2401 162.5 36.4501 161.96 36.5801C161.42 36.7201 160.86 36.7801 160.27 36.7801C158.73 36.7801 157.55 36.3901 156.71 35.6001C155.87 34.8201 155.45 33.6601 155.45 32.1401V26.8401H153.46V23.9601H155.45V20.8201H159.19V23.9601H162.4V26.8401H159.19V32.1001C159.19 32.6401 159.33 33.0601 159.61 33.3601C159.89 33.6601 160.29 33.8001 160.8 33.8001C161.39 33.8001 161.9 33.6401 162.31 33.3201L163.32 35.9601V35.9701Z" fill=""/>
</g>
<defs>
<clipPath id="clip0_1_335">
<rect width="163.32" height="57.34" fill="white" transform="translate(0 0.830078)"/>
</clipPath>
</defs>
</svg>
