<svg width="48" height="50" viewBox="0 0 48 50" fill="none" xmlns="http://www.w3.org/2000/svg">
<path d="M21.8483 25.6823C22.1587 25.713 22.4511 25.8474 22.6754 26.0651L22.7672 26.1628C22.9668 26.3993 23.0787 26.6976 23.0797 27.0085L23.0729 27.1413C23.0425 27.4479 22.9044 27.7355 22.6813 27.9548L22.6803 27.9557L10.9694 39.322L18.109 38.8405L18.2438 38.8376C18.3779 38.8406 18.5112 38.8621 18.6393 38.903L18.7653 38.9499C18.8882 39.0028 19.0025 39.0739 19.1051 39.1599L19.2037 39.2507C19.2968 39.3459 19.3751 39.4545 19.4362 39.5729C19.5175 39.7308 19.566 39.9031 19.5787 40.0798C19.5883 40.2125 19.5781 40.3462 19.5475 40.4753L19.5104 40.6022C19.4667 40.7281 19.4038 40.8466 19.3248 40.9538L19.2408 41.0573C19.1513 41.1565 19.0477 41.2422 18.9332 41.3112L18.8151 41.3747C18.6537 41.4517 18.4783 41.4954 18.2994 41.5065L18.3004 41.5075L7.4928 42.238L7.39807 42.2409C7.21147 42.2408 7.02668 42.2039 6.8551 42.1315C6.72619 42.0771 6.60657 42.0036 6.50061 41.9138L6.40002 41.819C6.30358 41.7187 6.22339 41.6042 6.16272 41.4802L6.10803 41.3532C6.04472 41.1798 6.01869 40.9951 6.03186 40.8112L6.78479 30.321C6.79649 30.1447 6.84336 29.9722 6.92346 29.8141L6.98987 29.6989C7.06151 29.587 7.1496 29.4858 7.25159 29.3991L7.35803 29.3181C7.46782 29.2419 7.58859 29.1821 7.71643 29.1403L7.84631 29.1042C7.97701 29.075 8.11159 29.0649 8.24573 29.0739L8.37952 29.0895C8.51187 29.1114 8.64055 29.152 8.76135 29.2106L8.87952 29.2751C8.99342 29.3449 9.09639 29.4312 9.18518 29.5309L9.26917 29.6345C9.3473 29.7421 9.409 29.8609 9.45178 29.987C9.50881 30.1551 9.53107 30.3327 9.51721 30.5095L9.01917 37.446L20.7487 26.0602L20.7496 26.0593L20.8512 25.9714C21.0952 25.7797 21.4001 25.6745 21.7145 25.6755L21.8483 25.6823ZM41.0367 6.96649C41.1822 6.97179 41.3264 6.99972 41.4635 7.0495L41.5973 7.10614C41.7277 7.16966 41.8477 7.25313 41.9518 7.35419L42.0494 7.46063C42.1417 7.57169 42.2152 7.69689 42.2672 7.83173L42.3121 7.96844C42.3366 8.06104 42.3504 8.15603 42.3541 8.25165L42.3522 8.3952L41.5992 18.8854C41.5779 19.1826 41.4558 19.462 41.2555 19.6813L41.1656 19.7722C40.9121 20.002 40.5792 20.1282 40.235 20.1286H40.234L40.1383 20.1257C39.7786 20.1013 39.4418 19.9392 39.2028 19.6725C38.9633 19.4054 38.8413 19.055 38.8668 18.6989L39.3639 11.7604L27.6354 23.1462C27.5402 23.2395 27.4321 23.3186 27.3141 23.3806L27.192 23.4372C27.0677 23.4878 26.9367 23.5196 26.8033 23.5329L26.6686 23.5397C26.5342 23.5401 26.4006 23.5216 26.2721 23.4841L26.1451 23.4401C26.0203 23.3902 25.9039 23.3221 25.7994 23.239L25.6989 23.1511C25.6028 23.0578 25.5216 22.9511 25.4576 22.8347L25.4 22.7155C25.3306 22.5521 25.295 22.3762 25.2955 22.1989C25.2961 22.0218 25.3325 21.8462 25.403 21.6833L25.4615 21.5641C25.5262 21.4482 25.6082 21.3422 25.7047 21.2497L37.4147 9.88251L30.274 10.3649L30.275 10.3659C30.096 10.3792 29.9156 10.358 29.7448 10.3034C29.6167 10.2624 29.4956 10.2031 29.3854 10.1276L29.2789 10.0466C29.1421 9.93181 29.0293 9.79143 28.9479 9.63348C28.8869 9.51518 28.8447 9.38875 28.8219 9.25848L28.8053 9.12665C28.7926 8.94975 28.8164 8.77195 28.8746 8.60419L28.9244 8.48114C28.9803 8.36093 29.0538 8.24926 29.1432 8.15009L29.2379 8.05536C29.3365 7.96571 29.4479 7.89058 29.569 7.8327C29.7302 7.75567 29.9058 7.71001 30.0846 7.69891L40.8912 6.96844L41.0367 6.96649Z" fill="white" stroke="white" stroke-width="0.5"/>
<path d="M26.5358 25.6823C26.2253 25.713 25.9329 25.8474 25.7086 26.0651L25.6168 26.1628C25.4172 26.3993 25.3053 26.6976 25.3043 27.0085L25.3112 27.1413C25.3415 27.4479 25.4796 27.7355 25.7028 27.9548L25.7037 27.9557L37.4147 39.322L30.275 38.8405L30.1403 38.8376C30.0061 38.8406 29.8728 38.8621 29.7448 38.903L29.6188 38.9499C29.4958 39.0028 29.3815 39.0739 29.2789 39.1599L29.1803 39.2507C29.0872 39.3459 29.0089 39.4545 28.9479 39.5729C28.8665 39.7308 28.818 39.9031 28.8053 40.0798C28.7958 40.2125 28.8059 40.3462 28.8365 40.4753L28.8737 40.6022C28.9173 40.7281 28.9803 40.8466 29.0592 40.9538L29.1432 41.0573C29.2327 41.1565 29.3364 41.2422 29.4508 41.3112L29.569 41.3747C29.7303 41.4517 29.9057 41.4954 30.0846 41.5065L30.0836 41.5075L40.8912 42.238L40.986 42.2409C41.1726 42.2408 41.3574 42.2039 41.5289 42.1315C41.6578 42.0771 41.7775 42.0036 41.8834 41.9138L41.984 41.819C42.0805 41.7187 42.1606 41.6042 42.2213 41.4802L42.276 41.3532C42.3393 41.1798 42.3653 40.9951 42.3522 40.8112L41.5992 30.321C41.5875 30.1447 41.5407 29.9722 41.4606 29.8141L41.3942 29.6989C41.3225 29.587 41.2344 29.4858 41.1324 29.3991L41.026 29.3181C40.9162 29.2419 40.7954 29.1821 40.6676 29.1403L40.5377 29.1042C40.407 29.075 40.2724 29.0649 40.1383 29.0739L40.0045 29.0895C39.8722 29.1114 39.7435 29.152 39.6227 29.2106L39.5045 29.2751C39.3906 29.3449 39.2876 29.4312 39.1989 29.5309L39.1149 29.6345C39.0367 29.7421 38.975 29.8609 38.9323 29.987C38.8752 30.1551 38.853 30.3327 38.8668 30.5095L39.3649 37.446L27.6354 26.0602L27.6344 26.0593L27.5328 25.9714C27.2889 25.7797 26.9839 25.6745 26.6696 25.6755L26.5358 25.6823ZM7.34729 6.96649C7.20187 6.97179 7.05763 6.99972 6.92053 7.0495L6.78674 7.10614C6.65633 7.16966 6.53636 7.25313 6.43225 7.35419L6.33459 7.46063C6.24236 7.57169 6.16879 7.69689 6.11682 7.83173L6.0719 7.96844C6.04744 8.06104 6.03362 8.15603 6.02991 8.25165L6.03186 8.3952L6.78479 18.8854C6.80611 19.1826 6.92824 19.462 7.12854 19.6813L7.21838 19.7722C7.47197 20.002 7.80485 20.1282 8.14905 20.1286H8.15002L8.24573 20.1257C8.60547 20.1013 8.94219 19.9392 9.18127 19.6725C9.42069 19.4054 9.54272 19.055 9.51721 18.6989L9.02014 11.7604L20.7487 23.1462C20.8438 23.2395 20.952 23.3186 21.0699 23.3806L21.192 23.4372C21.3163 23.4878 21.4473 23.5196 21.5807 23.5329L21.7155 23.5397C21.8499 23.5401 21.9835 23.5216 22.1119 23.4841L22.2389 23.4401C22.3637 23.3902 22.4801 23.3221 22.5846 23.239L22.6852 23.1511C22.7812 23.0578 22.8624 22.9511 22.9264 22.8347L22.984 22.7155C23.0535 22.5521 23.0891 22.3762 23.0885 22.1989C23.0879 22.0218 23.0515 21.8462 22.9811 21.6833L22.9225 21.5641C22.8578 21.4482 22.7758 21.3422 22.6793 21.2497L10.9694 9.88251L18.11 10.3649L18.109 10.3659C18.2881 10.3792 18.4685 10.358 18.6393 10.3034C18.7674 10.2624 18.8884 10.2031 18.9987 10.1276L19.1051 10.0466C19.2419 9.93181 19.3548 9.79143 19.4362 9.63348C19.4971 9.51518 19.5393 9.38875 19.5621 9.25848L19.5787 9.12665C19.5914 8.94975 19.5676 8.77195 19.5094 8.60419L19.4596 8.48114C19.4038 8.36093 19.3302 8.24926 19.2408 8.15009L19.1461 8.05536C19.0476 7.96571 18.9361 7.89058 18.8151 7.8327C18.6538 7.75567 18.4783 7.71001 18.2994 7.69891L7.4928 6.96844L7.34729 6.96649Z" fill="white" stroke="white" stroke-width="0.5"/>
</svg>
