<svg width="49" height="49" viewBox="0 0 49 49" fill="none" xmlns="http://www.w3.org/2000/svg">
<g clip-path="url(#clip0_1_224)">
<path d="M23.55 1.07959C24.0348 0.679595 24.7108 0.70019 25.1769 1.13916C25.1868 1.14548 25.1961 1.15163 25.2033 1.15674C25.2226 1.17057 25.247 1.18877 25.2736 1.20947C25.3192 1.24501 25.4139 1.31982 25.5041 1.39014C25.7025 1.54489 25.9943 1.76762 26.38 2.04053C27.1518 2.58648 28.3015 3.33386 29.8341 4.13428C32.7075 5.63494 36.9278 7.32401 42.5265 8.22607L43.6652 8.396L43.672 8.39697L43.6798 8.39795C44.2695 8.51589 44.7802 8.99852 44.7804 9.64307V20.8433C44.7804 33.4525 36.7097 44.4496 24.6046 48.1821L24.5685 48.1938H23.8937L23.8585 48.1831C12.0391 44.6075 4.03517 33.8945 3.69155 21.5356L3.68081 20.9458V9.74365C3.68081 9.09906 4.19175 8.61664 4.7814 8.49854L4.78921 8.49658L4.79702 8.49561C11.0657 7.64983 15.7137 5.83502 18.8029 4.22217C20.3476 3.41567 21.5027 2.6592 22.2765 2.1001C22.6634 1.82054 22.9546 1.58993 23.1515 1.42725C23.2499 1.34596 23.3249 1.28194 23.3761 1.23682L23.4542 1.1665L23.55 1.07959ZM24.3302 3.65771C22.2638 5.2542 16.3385 9.1663 6.28042 10.7554V20.9438C6.28059 32.3073 13.4762 42.1916 24.3312 45.7798C35.1837 42.2908 42.3808 32.3092 42.381 20.9438V10.7554C32.3218 9.16609 26.396 5.25383 24.3302 3.65771Z" fill="white" stroke="white" stroke-width="0.5"/>
<path d="M24.3306 10.5934C28.5665 10.5934 32.0806 14.0032 32.0806 18.3434V21.3942C33.5971 21.4222 34.8804 22.7224 34.8804 24.2438V33.5436C34.8803 35.0816 33.5688 36.3932 32.0308 36.3932H16.5308C15.0027 36.3932 13.6812 35.0913 13.7808 33.5436V24.2438C13.7808 22.7225 15.0643 21.4224 16.5806 21.3942V18.3434C16.5806 14.1054 20.0926 10.5935 24.3306 10.5934ZM16.5308 23.8932C16.4622 23.8932 16.3728 23.9303 16.2955 24.0075C16.2181 24.0849 16.1812 24.1751 16.1812 24.2438V33.5436C16.1813 33.6123 16.2181 33.7017 16.2955 33.779C16.3729 33.8563 16.4622 33.8932 16.5308 33.8932H32.0308C32.0995 33.8932 32.1888 33.8563 32.2662 33.779C32.3435 33.7017 32.3804 33.6123 32.3804 33.5436V24.2438C32.3804 24.1751 32.3436 24.0849 32.2662 24.0075C32.1888 23.9303 32.0994 23.8933 32.0308 23.8932H16.5308ZM24.3306 13.0934C21.4658 13.0935 19.0806 15.3845 19.0806 18.3434V21.3932H29.5806V18.3434C29.5806 15.4815 27.1926 13.0934 24.3306 13.0934Z" fill="white" stroke="white" stroke-width="0.5"/>
<path d="M25.5808 28.1935V31.9933H23.0808V28.1935H25.5808Z" fill="white" stroke="white" stroke-width="0.5"/>
</g>
<defs>
<clipPath id="clip0_1_224">
<rect width="48" height="48" fill="white" transform="translate(0.330811 0.543457)"/>
</clipPath>
</defs>
</svg>
