<svg width="27" height="28" viewBox="0 0 27 28" fill="none" xmlns="http://www.w3.org/2000/svg">
<path d="M13.4431 2.67932C19.5798 2.67932 24.5542 7.65377 24.5542 13.7904C24.5542 19.9271 19.5798 24.9015 13.4431 24.9015C11.4795 24.9049 9.55044 24.3853 7.85424 23.396L2.33646 24.9015L3.83868 19.3815C2.84864 17.6848 2.32858 15.7549 2.33202 13.7904C2.33202 7.65377 7.30646 2.67932 13.4431 2.67932ZM9.65646 8.56821L9.43424 8.5771C9.29056 8.587 9.15018 8.62473 9.02091 8.68821C8.90043 8.75655 8.79042 8.84187 8.69424 8.94154C8.56091 9.0671 8.48535 9.17599 8.40424 9.28154C7.99326 9.81588 7.77199 10.4719 7.77535 11.146C7.77757 11.6904 7.91979 12.2204 8.14202 12.716C8.59646 13.7182 9.34424 14.7793 10.3309 15.7627C10.5687 15.9993 10.802 16.2371 11.0531 16.4582C12.2792 17.5375 13.7401 18.316 15.3198 18.7315L15.9509 18.8282C16.1565 18.8393 16.362 18.8238 16.5687 18.8138C16.8922 18.7967 17.2081 18.7091 17.4942 18.5571C17.6396 18.4819 17.7816 18.4004 17.9198 18.3127C17.9198 18.3127 17.9668 18.2808 18.0587 18.2127C18.2087 18.1015 18.3009 18.0227 18.4254 17.8927C18.5187 17.7964 18.5965 17.6845 18.6587 17.5571C18.7453 17.376 18.832 17.0304 18.8676 16.7427C18.8942 16.5227 18.8865 16.4027 18.8831 16.3282C18.8787 16.2093 18.7798 16.086 18.672 16.0338L18.0253 15.7438C18.0253 15.7438 17.0587 15.3227 16.4676 15.0538C16.4057 15.0268 16.3394 15.0114 16.272 15.0082C16.196 15.0003 16.1191 15.0087 16.0467 15.0331C15.9742 15.0574 15.9078 15.0971 15.852 15.1493C15.8465 15.1471 15.772 15.2104 14.9687 16.1838C14.9226 16.2457 14.8591 16.2925 14.7862 16.3183C14.7134 16.344 14.6346 16.3475 14.5598 16.3282C14.4874 16.3089 14.4165 16.2844 14.3476 16.2549C14.2098 16.1971 14.162 16.1749 14.0676 16.1349C13.4297 15.857 12.8392 15.481 12.3176 15.0204C12.1776 14.8982 12.0476 14.7649 11.9142 14.636C11.4771 14.2173 11.0962 13.7437 10.7809 13.2271L10.7153 13.1215C10.669 13.0502 10.6309 12.9738 10.602 12.8938C10.5598 12.7304 10.6698 12.5993 10.6698 12.5993C10.6698 12.5993 10.9398 12.3038 11.0653 12.1438C11.1876 11.9882 11.2909 11.8371 11.3576 11.7293C11.4887 11.5182 11.5298 11.3015 11.4609 11.1338C11.1498 10.3738 10.8283 9.61784 10.4965 8.86599C10.4309 8.7171 10.2365 8.61043 10.0598 8.58932C9.99979 8.58191 9.93979 8.57599 9.87979 8.57154C9.7306 8.56299 9.58101 8.56447 9.43202 8.57599L9.65646 8.56821Z" fill=""/>
</svg>
